{"title":"Snow.in.Paradise.2014.BRRip.XviD.MP3-RARBG","uid":12110647,"size":1070400166,"categoryP":"video","categoryS":"movies","magnet":"?xt=urn:btih:957068627c281abf6727c00ad7e07cdccb8f3822&amp;dn=Snow.in.Paradise.2014.BRRip.XviD.MP3-RARBG&amp;tr=udp%3A%2F%2Ftracker.openbittorrent.com%3A80&amp;tr=udp%3A%2F%2Fopen.demonii.com%3A1337&amp;tr=udp%3A%2F%2Ftracker.coppersurfer.tk%3A6969&amp;tr=udp%3A%2F%2Fexodus.desync.com%3A6969","seeders":0,"leechers":0,"uploader":null,"files":4,"time":1436563567,"description":"Video\nID                                       : 0\nFormat                                   : MPEG-4 Visual\nFormat profile                           : Simple@L5\nFormat settings, BVOP                    : No\nFormat settings, QPel                    : No\nFormat settings, GMC                     : No warppoints\nFormat settings, Matrix                  : Default (H.263)\nCodec ID                                 : XVID\nCodec ID/Hint                            : XviD\nDuration                                 : 1h 48mn\nBit rate                                 : 1 114 Kbps\nWidth                                    : 720 pixels\nHeight                                   : 302 pixels\nDisplay aspect ratio                     : 2.40:1\nOriginal display aspect ratio            : 2.40:1\nFrame rate                               : 24.000 fps\nColor space                              : YUV\nChroma subsampling                       : 4:2:0\nBit depth                                : 8 bits\nScan type                                : Progressive\nCompression mode                         : Lossy\nBits/(Pixel*Frame)                       : 0.214\nStream size                              : 861 MiB (84%)\nTitle                                    : RARBG.COM - Snow.in.Paradise.2014.BRRip.XviD.MP3-RARBG\nWriting library                          : Lavc56.19.100\n\nAudio\nID                                       : 1\nFormat                                   : MPEG Audio\nFormat version                           : Version 1\nFormat profile                           : Layer 3\nMode                                     : Joint stereo\nMode extension                           : MS Stereo\nCodec ID                                 : 55\nCodec ID/Hint                            : MP3\nDuration                                 : 1h 48mn\nBit rate mode                            : Constant\nBit rate                                 : 192 Kbps\nChannel(s)                               : 2 channels\nSampling rate                            : 48.0 KHz\nCompression mode                         : Lossy\nStream size                              : 148 MiB (15%)\nAlignment                                : Aligned on interleaves\nInterleave, duration                     : 24 ms (0.58 video frame)\nInterleave, preload duration             : 24 ms\nTitle                                    : RARBG.COM - Snow.in.Paradise.2014.BRRip.XviD.MP3-RARBG","torrent":{"xt":"urn:btih:957068627c281abf6727c00ad7e07cdccb8f3822","amp;dn":"Snow.in.Paradise.2014.BRRip.XviD.MP3-RARBG","amp;tr":["udp%3A%2F%2Ftracker.openbittorrent.com%3A80","udp%3A%2F%2Fopen.demonii.com%3A1337","udp%3A%2F%2Ftracker.coppersurfer.tk%3A6969","udp%3A%2F%2Fexodus.desync.com%3A6969"],"infoHash":"957068627c281abf6727c00ad7e07cdccb8f3822","infoHashBuffer":{"type":"Buffer","data":[149,112,104,98,124,40,26,191,103,39,192,10,215,224,124,220,203,143,56,34]},"announce":[],"urlList":[]}}